<svg height="30" viewBox="0 0 42 58" width="30" xmlns="http://www.w3.org/2000/svg"><g id="Page-1" fill="none" fill-rule="evenodd"><g id="040---Recycle-Bin" fill-rule="nonzero"><path id="Shape" d="m40 17h-1l-4.16-14.13c-.5014383-1.70270391-2.064996-2.87130041-3.84-2.87h-20c-1.77130138.00313124-3.32960935 1.17084504-3.83 2.87l-4.17 14.13h-1c-1.1045695 0-2 .8954305-2 2v1c0 1.1045695.8954305 2 2 2l3.51 31.55c.28157553 2.5446747 2.43984125 4.4655312 5 4.45h21c2.5601587.0155312 4.7184245-1.9053253 5-4.45l3.49-31.55c1.1045695 0 2-.8954305 2-2v-1c0-1.1045695-.8954305-2-2-2z" fill="#4fba6f"/><path id="Shape" d="m9.1 10.44 1.47-5c.2488889-.85333333 1.0311111-1.44 1.92-1.44h17c.8888889 0 1.6711111.58666667 1.92 1.44l1.47 5c.1744443.5976342.060632 1.2424199-.3078751 1.7442167-.368507.5017969-.9496754.803368-1.5721249.8157833h-20c-.6259887-.0062511-1.21293773-.3052507-1.58603144-.8079454-.37309372-.5026947-.48928533-1.1510846-.31396856-1.7520546z" fill="#393f4a"/><rect id="Rectangle-path" fill="#4c8056" height="5" rx="2" width="42" y="17"/><path id="Shape" d="m16 55h-5.52c-1.02064743.006769-1.88264541-.7560992-2-1.77l-1.69-15.23c-.06075132-.5522847.33771525-1.0492487.89-1.11s1.04924868.3377153 1.11.89l1.68 15.22h5.53c.5522847 0 1 .4477153 1 1s-.4477153 1-1 1z" fill="#7ed09e"/><path id="Shape" d="m7.14 33c-.50862567.0036739-.9389766-.3750349-1-.88l-.67-6c-.06075132-.5522847.33771525-1.0492487.89-1.11s1.04924868.3377153 1.11.89l.68 6c.02789028.2654886-.05152738.531108-.22056993.7377155-.16904255.2066076-.41367584.3370505-.67943007.3622845z" fill="#7ed09e"/><g fill="#fff"><path id="Shape" d="m24.46 32.68c-.3586848.001424-.690659-.1893658-.87-.5l-1.72-3c-.1775612-.3133105-.509873-.5069483-.87-.5069483s-.6924388.1936378-.87.5069483l-1.72 3c-.1786328.3108211-.5095174.5027321-.8680127.5034421s-.6901375-.1898889-.87-.5c-.1798626-.3101111-.1806201-.692621-.0019873-1.0034421l1.73-3c.5353928-.9300833 1.526827-1.503337 2.6-1.503337s2.0646072.5732537 2.6 1.503337l1.73 3c.1789919.3100165.1786145.6920638-.0009896 1.001726-.1796041.3096623-.5110351.4996985-.8690104.498274z"/><path id="Shape" d="m27.54 44h-3.08c-.5522847 0-1-.4477153-1-1s.4477153-1 1-1h3.08c.3561886-.0021425.6843497-.1935877.8615155-.5025978.1771657-.3090101.1765885-.6889319-.0015155-.9974022l-1.54-2.66c-.2761424-.4804877-.1104877-1.0938576.37-1.37s1.0938576-.1104877 1.37.37l1.53 2.66c.5351827.9269546.5359541 2.0688327.0020245 2.9965097-.5339296.9276769-1.5216708 1.5006111-2.5920245 1.5034903z"/><path id="Shape" d="m17.54 44h-3.08c-1.0703537-.0028792-2.0580949-.5758134-2.5920245-1.5034903-.5339296-.927677-.5331582-2.0695551.0020245-2.9965097l1.53-2.66c.1786328-.3108211.5095174-.5027322.8680127-.5034422.3584954-.00071.6901375.189889.87.5000001.1798626.310111.1806201.692621.0019873 1.0034421l-1.54 2.66c-.178104.3084703-.1786812.6883921-.0015155.9974022.1771658.3090101.5053269.5004553.8615155.5025978h3.08c.5522847 0 1 .4477153 1 1s-.4477153 1-1 1z"/></g></g></g></svg>