<svg width="140" height="35" viewBox="0 0 140 35" fill="none" xmlns="http://www.w3.org/2000/svg">
<path d="M8.91816 26.7487C10.8505 28.6811 10.8505 31.2074 8.91816 33.1398C6.98573 35.0723 4.21892 35.4373 2.28941 33.5049C0.357 31.5725 0.678583 28.6811 2.611 26.7487C4.54051 24.8163 6.98573 24.8163 8.91816 26.7487Z" fill="white"/>
<path d="M20.9849 13.8363C19.8984 12.7326 18.5686 12.4602 17.0128 12.3182C15.1616 12.1531 13.3334 11.8258 12.0181 10.5133C10.7086 9.20378 10.0973 7.3844 10.219 5.53599C10.3609 3.40077 9.17019 1.19603 6.641 0.271833C5.68492 -0.0787244 4.62745 -0.0932101 3.66559 0.245759C-0.341191 1.65668 -1.06259 6.26028 1.49851 8.82135C2.62261 9.94547 3.7583 10.183 5.56034 10.3569C7.21751 10.5162 9.01663 10.8958 10.1958 12.072L10.0799 11.9561C11.488 13.3641 12.2412 14.9836 12.1804 16.974C12.1398 18.3328 12.6845 20.0016 13.7217 21.0387C15.7874 23.1044 19.177 23.0349 21.1529 20.833C22.9346 18.8456 22.8564 15.7427 20.9849 13.8363Z" fill="white"/>
<path d="M46.9462 17.4581C46.9462 14.6188 44.6313 12.6082 41.8066 12.3185C40.555 12.191 37.9997 11.8173 36.7713 10.5889C35.4618 9.27939 35.0822 7.37878 34.9722 5.61154C34.8621 3.87904 34.2392 2.10017 32.6544 0.996351C31.0233 -0.139339 28.8388 -0.142236 27.1643 0.926818C24.2903 2.76362 23.9861 6.62846 26.2517 8.89403C27.3758 10.0182 28.7085 10.3107 30.3135 10.4295C31.9533 10.5512 33.7235 10.9511 34.8997 12.1012C34.92 12.1215 34.9432 12.1476 34.975 12.1823C37.5941 15.0968 37.7447 19.4803 35.3662 22.5919C35.2822 22.7019 35.2213 22.7772 35.1807 22.8149C33.8712 24.1245 32.2083 24.5098 30.2034 24.6141C28.4564 24.7067 26.6892 25.3384 25.5882 26.926C24.4554 28.56 24.4496 30.7503 25.5216 32.4248C27.3613 35.2959 31.2203 35.5972 33.4859 33.3317C34.61 32.2076 34.92 31.0487 35.0214 29.2698C35.117 27.63 35.5429 25.8598 36.6931 24.6836C38.0837 23.319 39.5207 22.8989 41.3981 22.6498C41.456 22.6411 41.514 22.6353 41.5748 22.6266C41.7544 22.6005 41.9399 22.589 42.1224 22.5803C43.3478 22.5049 44.4546 21.9979 45.3006 21.2128C45.3295 21.1896 45.3556 21.1606 45.3846 21.1375C45.4078 21.1172 45.431 21.0969 45.4512 21.0737C45.6859 20.8535 45.9061 20.6044 46.0944 20.3175C46.2306 20.1118 46.3493 19.883 46.4507 19.6368C46.7666 18.9791 46.9462 18.2403 46.9462 17.4581Z" fill="white"/>
<path d="M60.9121 23.7901C60.7152 23.5287 60.618 23.2047 60.618 22.8153C60.618 22.2534 60.9015 21.7778 61.4659 21.3883C61.7704 21.195 62.0854 21.0956 62.4109 21.0956C62.8676 21.0956 63.3007 21.3021 63.7155 21.7124C64.3664 22.3814 65.0408 22.8806 65.7369 23.2047C66.4532 23.5287 67.3118 23.6908 68.3114 23.6908C70.0076 23.6255 70.8523 22.9877 70.8523 21.7778C70.8523 21.1505 70.5589 20.6749 69.9733 20.3508C69.4088 20.0268 68.5191 19.7027 67.301 19.3786C66.0411 19.0337 65.0097 18.686 64.2064 18.3411C63.4241 17.9961 62.739 17.4761 62.1536 16.7861C61.5893 16.0726 61.3058 15.1214 61.3058 13.9348C61.3058 12.8973 61.5998 12.0009 62.1851 11.2456C62.7941 10.4668 63.5764 9.87357 64.5315 9.46326C65.5082 9.03206 66.5428 8.81519 67.6268 8.81519C68.7343 8.81519 69.8419 9.02164 70.9494 9.43195C72.0576 9.84227 72.9264 10.4486 73.5564 11.2483C73.8396 11.5933 73.9787 11.9826 73.9787 12.4139C73.9787 12.9104 73.7716 13.3207 73.3595 13.6447C73.0547 13.8826 72.7085 14.0002 72.3174 14.0002C71.8398 14.0002 71.4486 13.8486 71.1438 13.5455C70.7526 13.0698 70.2439 12.6909 69.6139 12.4112C69.0049 12.1316 68.3089 11.9905 67.5296 11.9905C65.8785 11.9905 65.0542 12.5837 65.0542 13.7728C65.0542 14.2485 65.2066 14.6378 65.5108 14.9384C65.8156 15.218 66.196 15.4454 66.6501 15.6179C67.1276 15.7695 67.7894 15.9629 68.6372 16.2007C69.8108 16.5247 70.7869 16.8593 71.5693 17.2043C72.3516 17.5492 73.0127 18.0797 73.5564 18.7932C74.0993 19.5067 74.3699 20.4475 74.3699 21.6131C74.3699 22.6715 74.0549 23.6019 73.4249 24.4016C72.7949 25.1804 71.9814 25.7737 70.9812 26.184C70.0045 26.5943 68.9941 26.8008 67.952 26.8008C66.5186 26.8008 65.1825 26.5629 63.9441 26.0873C62.7022 25.6143 61.6943 24.8485 60.9121 23.7901Z" fill="white"/>
<path d="M81.3104 24.8879C81.3104 25.4497 81.1262 25.9254 80.756 26.3148C80.3864 26.6832 79.919 26.8662 79.3544 26.8662C78.7905 26.8662 78.3231 26.6832 77.9528 26.3148C77.5826 25.9254 77.399 25.4497 77.399 24.8879V10.7283C77.399 10.1664 77.5826 9.70125 77.9528 9.33533C78.3231 8.94597 78.7905 8.75253 79.3544 8.75253C79.919 8.75253 80.3864 8.94597 80.756 9.33533C81.1262 9.70385 81.3104 10.1664 81.3104 10.7283V24.8879Z" fill="white"/>
<path d="M99.7557 8.81519C100.32 8.81519 100.787 8.99808 101.157 9.36661C101.528 9.73507 101.711 10.2081 101.711 10.7935V25.217C101.711 27.8539 100.887 29.7984 99.2363 31.0502C97.6061 32.3255 95.532 32.9632 93.0121 32.9632C92.3611 32.9632 91.4587 32.856 90.3086 32.6392C89.1801 32.4222 88.3768 32.2079 87.8966 31.991C86.8304 31.5363 86.3007 30.9117 86.3007 30.1119C86.3007 29.9604 86.3319 29.7879 86.3973 29.5945C86.5287 29.1188 86.744 28.753 87.0489 28.4917C87.374 28.2538 87.7233 28.1362 88.0903 28.1362C88.3088 28.1362 88.5133 28.1676 88.7102 28.2329C88.7965 28.2538 89.3293 28.4498 90.3061 28.8157C91.3063 29.2051 92.2068 29.3985 93.0095 29.3985C94.6162 29.3985 95.8133 29.0745 96.5951 28.4263C97.3984 27.7991 97.8004 26.9027 97.8004 25.7371C97.8004 25.2536 97.0942 24.9896 96.7081 25.2876C96.388 25.5358 96.0229 25.7711 95.6164 25.9958C94.6607 26.5368 93.6293 26.806 92.5218 26.806C91.0015 26.806 89.6107 26.427 88.3507 25.6717C87.1117 24.893 86.135 23.824 85.4187 22.4625C84.7017 21.1008 84.3422 19.5563 84.3422 17.8262C84.3422 16.0988 84.689 14.5516 85.3844 13.19C86.1007 11.8075 87.0666 10.7387 88.2847 9.98077C89.5237 9.20194 90.8916 8.81519 92.3903 8.81519C93.4979 8.81519 94.5292 9.04254 95.485 9.49463C96.3118 9.88666 96.9996 10.3518 97.5508 10.8902C97.6397 10.9791 97.7972 10.9163 97.7972 10.7909C97.7972 10.229 97.9814 9.76384 98.3516 9.39798C98.7244 9.00856 99.1912 8.81519 99.7557 8.81519ZM93.0095 23.2386C94.4663 23.2386 95.6501 22.7317 96.5614 21.715C97.4956 20.6775 97.963 19.3812 97.963 17.8262C97.963 16.2713 97.4956 14.975 96.5614 13.9374C95.6475 12.8999 94.4638 12.3825 93.0095 12.3825C91.5552 12.3825 90.3715 12.8999 89.4583 13.9374C88.545 14.975 88.0903 16.2713 88.0903 17.8262C88.0903 19.3812 88.5476 20.6775 89.4583 21.715C90.3715 22.729 91.5552 23.2386 93.0095 23.2386Z" fill="white"/>
<path d="M114.061 8.81519C116.277 8.81519 117.809 9.47374 118.654 10.7935C119.502 12.0898 119.925 13.8957 119.925 16.2059V24.8903C119.925 25.4522 119.742 25.9279 119.371 26.3173C119.001 26.6857 118.534 26.8687 117.97 26.8687C117.405 26.8687 116.938 26.6857 116.568 26.3173C116.198 25.9279 116.014 25.4522 116.014 24.8903V16.2033C116.014 15.0142 115.765 14.0864 115.263 13.4148C114.765 12.7223 113.906 12.3772 112.688 12.3772C111.428 12.3772 110.439 12.7458 109.722 13.4801C109.005 14.1936 108.646 15.1004 108.646 16.2033V24.8877C108.646 25.4496 108.462 25.9253 108.092 26.3147C107.722 26.6831 107.254 26.8661 106.69 26.8661C106.126 26.8661 105.659 26.6831 105.289 26.3147C104.919 25.9253 104.734 25.4496 104.734 24.8877V11.115C104.734 10.5531 104.919 10.0879 105.289 9.72205C105.659 9.33263 106.126 9.13919 106.69 9.13919C107.254 9.13919 107.722 9.33263 108.092 9.72205C108.462 10.0905 108.646 10.5531 108.646 11.115C108.646 11.2927 108.877 11.3711 108.995 11.2378C109.525 10.6393 110.168 10.1114 110.927 9.6567C111.888 9.0948 112.93 8.81519 114.061 8.81519Z" fill="white"/>
<path d="M138.045 8.8465C138.609 8.8465 139.076 9.02939 139.446 9.39792C139.816 9.76638 140 10.2394 140 10.6315V24.3415C140 25.0968 139.816 25.5724 139.446 25.9618C139.076 26.3303 138.609 26.5133 138.045 26.5133C137.48 26.5133 137.013 26.3303 136.643 25.9618C136.265 25.5619 135.391 25.2693 134.937 25.5776C134.617 25.7972 134.262 25.9984 133.874 26.1892C132.96 26.6204 131.994 26.8373 130.973 26.8373C129.475 26.8373 128.117 26.4583 126.899 25.7031C125.684 24.9243 124.715 23.8554 123.999 22.4938C123.303 21.1322 122.957 19.5876 122.957 17.8576C122.957 16.1301 123.303 14.5829 123.999 13.2214C124.694 11.8388 125.639 10.77 126.834 10.0121C128.049 9.23325 129.385 8.8465 130.842 8.8465C131.884 8.8465 132.863 9.03987 133.774 9.42929C134.674 9.79254 135.438 10.2603 136.063 10.8327C136.071 10.8405 136.087 10.8353 136.087 10.8222C136.087 10.2603 136.27 9.79515 136.641 9.42929C137.013 9.03987 137.48 8.8465 138.045 8.8465ZM131.462 23.27C132.873 23.27 134.026 22.763 134.916 21.7463C135.805 20.7088 136.252 19.4125 136.252 17.8576C136.252 16.3026 135.805 15.0063 134.916 13.9688C134.026 12.9313 132.873 12.4138 131.462 12.4138C130.07 12.4138 128.931 12.9313 128.041 13.9688C127.151 15.0063 126.705 16.3026 126.705 17.8576C126.705 19.4125 127.138 20.7088 128.009 21.7463C128.9 22.7604 130.049 23.27 131.462 23.27Z" fill="white"/>
<path d="M81.3104 4.75118C81.3104 5.31307 81.1262 5.78871 80.756 6.17811C80.3864 6.54662 79.919 6.72952 79.3544 6.72952C78.7905 6.72952 78.3231 6.54662 77.9528 6.17811C77.5826 5.78871 77.399 5.31307 77.399 4.75118V4.51858C77.399 3.9567 77.5826 3.49151 77.9528 3.12563C78.3231 2.73362 78.7905 2.54022 79.3544 2.54022C79.919 2.54022 80.3864 2.73362 80.756 3.12302C81.1262 3.49151 81.3104 3.95409 81.3104 4.51597V4.75118Z" fill="white"/>
</svg>
